<svg xmlns="http://www.w3.org/2000/svg" width="512" height="512" viewBox="0 0 32 32" shape-rendering="crispEdges">
  <title>Pixel portrait half-body reference 32x32</title>
  <desc>Retro pixel-art half-body portrait based on the provided reference photo, simplified to a 32x32 grid.</desc>
  <style>
    .bg0 { fill: #18131d; }
    .bg1 { fill: #2a2232; }
    .bg2 { fill: #3b3146; }
    .line { fill: #120f12; }
    .hair0 { fill: #181818; }
    .hair1 { fill: #2b2b2b; }
    .skin0 { fill: #b8745d; }
    .skin1 { fill: #d89275; }
    .skin2 { fill: #efb092; }
    .mouth { fill: #5b2c31; }
    .lip { fill: #92515a; }
    .tooth { fill: #f4efe6; }
    .shirt0 { fill: #cbc7c1; }
    .shirt1 { fill: #f1eee7; }
    .shirt2 { fill: #b0aca5; }
  </style>

  <rect class="bg0" x="0" y="0" width="32" height="32" />
  <rect class="bg1" x="2" y="2" width="28" height="28" />
  <rect class="bg2" x="4" y="4" width="24" height="24" />

  <path class="line" d="M10 3h12v1h2v1h1v1h1v4h1v5h-1v2h-1v2h-1v1h-2v2h3v1h4v1h2v6h-2v1h-26v-1h-2v-6h2v-1h4v-1h3v-2h-2v-1h-1v-2h-1v-2h-1v-5h1v-4h1v-1h1v-1h2z" />

  <path class="hair0" d="M11 4h10v1h2v1h1v1h1v3h-1v1h-2v-1h-2v-1h-8v1h-2v1h-2v1h-1v-4h1v-1h1v-1h2z" />
  <path class="hair1" d="M12 5h8v1h2v1h1v2h-1v1h-3v-1h-7v1h-3v-1h1v-2h1v-1h2z" />
  <rect class="hair0" x="8" y="10" width="2" height="6" />
  <rect class="hair0" x="22" y="10" width="2" height="6" />

  <path class="skin1" d="M10 9h12v1h2v2h1v5h-1v2h-1v1h-1v1h-2v1h-6v-1h-2v-1h-1v-1h-1v-2h-1v-5h1v-2h2z" />
  <path class="skin2" d="M12 10h8v1h2v1h-1v1h-3v-1h-5v1h-3v-1h1v-1h1z" />
  <rect class="skin0" x="15" y="12" width="2" height="4" />
  <rect class="skin2" x="13" y="14" width="5" height="2" />
  <rect class="skin0" x="18" y="15" width="2" height="1" />

  <rect class="line" x="10" y="12" width="6" height="1" />
  <rect class="line" x="18" y="12" width="4" height="1" />
  <rect class="line" x="11" y="13" width="4" height="1" />
  <rect class="line" x="19" y="13" width="2" height="2" />
  <rect class="line" x="14" y="16" width="1" height="1" />
  <rect class="line" x="17" y="16" width="1" height="1" />

  <rect class="lip" x="11" y="17" width="10" height="1" />
  <rect class="mouth" x="10" y="18" width="12" height="3" />
  <rect class="tooth" x="11" y="18" width="10" height="1" />
  <rect class="line" x="12" y="20" width="8" height="1" />
  <rect class="line" x="14" y="18" width="1" height="1" />
  <rect class="line" x="17" y="18" width="1" height="1" />

  <rect class="hair0" x="9" y="15" width="1" height="5" />
  <rect class="hair0" x="22" y="15" width="1" height="5" />
  <rect class="line" x="9" y="10" width="1" height="10" />
  <rect class="line" x="22" y="10" width="1" height="10" />

  <rect class="skin0" x="13" y="22" width="6" height="2" />
  <rect class="skin1" x="14" y="23" width="4" height="2" />
  <rect class="line" x="12" y="21" width="8" height="1" />

  <path class="shirt0" d="M7 23h6v2h6v-2h6v1h3v1h2v7h-28v-7h2v-1h3z" />
  <path class="shirt1" d="M9 24h4v2h6v-2h4v1h3v1h1v5h-22v-5h1v-1h3z" />
  <path class="shirt2" d="M9 26h4v4h-5v-2h1zm10 0h4v4h-4zm6 1h2v1h1v3h-3z" />
  <rect class="shirt1" x="13" y="25" width="6" height="6" />
  <rect class="line" x="14" y="25" width="4" height="1" />
  <rect class="line" x="15" y="26" width="2" height="5" />

  <rect class="line" x="4" y="4" width="24" height="1" />
  <rect class="line" x="4" y="27" width="24" height="1" />
  <rect class="line" x="4" y="4" width="1" height="24" />
  <rect class="line" x="27" y="4" width="1" height="24" />
</svg>
